<svg width="78" height="92" viewBox="0 0 78 92" fill="none" xmlns="http://www.w3.org/2000/svg">
<path fill-rule="evenodd" clip-rule="evenodd" d="M41.0513 17.5571C38.6285 17.5058 36.4956 17.7995 34.9054 18.1291C33.0996 18.5033 31.9569 20.1545 31.9569 21.9986V87.3559C31.9569 89.1501 33.0369 90.7722 34.7768 91.2109C36.4729 91.6385 38.79 92.0481 41.3215 91.9954C43.6688 91.9466 45.7779 91.5733 47.3546 91.1911C49.1237 90.7623 50.2358 89.1244 50.2358 87.3042V59.3055C50.2358 58.7643 50.0172 58.2461 49.6295 57.8685L46.4942 54.8144C46.3944 54.7172 46.4073 54.5532 46.521 54.4728L49.3885 52.4437C49.9199 52.0677 50.2358 51.4571 50.2358 50.8061V22.2407C50.2358 20.2787 48.9503 18.55 47.0212 18.1919C45.4049 17.892 43.3109 17.605 41.0513 17.5571ZM40.051 27.8547C40.6396 27.3853 41.4715 27.3744 42.0722 27.8282L42.0938 27.8445C42.5147 28.1626 42.7622 28.6596 42.7622 29.1872V50.1784C42.7622 51.0984 42.0163 51.8441 41.0963 51.8441C40.1763 51.8441 39.4305 51.0984 39.4305 50.1784V29.1431C39.4305 28.6416 39.6589 28.1674 40.051 27.8547ZM42.7622 60.1248C42.7622 59.2049 42.0163 58.4591 41.0963 58.4591C40.1763 58.4591 39.4305 59.2049 39.4305 60.1248V80.989C39.4305 81.5471 39.6983 82.0714 40.1504 82.3987L40.2602 82.4781C40.8754 82.9234 41.7207 82.867 42.2713 82.344C42.5847 82.0462 42.7622 81.6329 42.7622 81.2006V60.1248Z" fill="url(#paint0_linear_6004_481)"/>
<path d="M27.7217 30.9422V20.9067C27.7217 20.4573 27.2884 20.1359 26.8647 20.2856C17.1395 23.7209 4.95046 35.7452 3.79872 51.7308C2.56066 68.9146 11.8468 82.7455 26.802 89.2704C27.2379 89.4606 27.7217 89.1382 27.7217 88.6626V50.9786C27.7217 50.6093 27.4223 50.3099 27.0529 50.3099H18.5397C18.1704 50.3099 17.871 50.6093 17.871 50.9786V67.6343C17.871 67.8553 17.5814 67.9312 17.4639 67.7441C7.45332 51.8024 18.5103 37.7564 26.6855 32.7389C27.3155 32.3522 27.7217 31.6813 27.7217 30.9422Z" fill="url(#paint1_linear_6004_481)"/>
<path fill-rule="evenodd" clip-rule="evenodd" d="M54.4712 21.1966C54.4712 20.6995 54.9969 20.3778 55.4396 20.6039C63.3627 24.6515 65.8856 27.0916 69.8522 31.594C75.7355 38.2718 77.4832 46.8606 77.985 50.8105C78.067 51.4558 77.8074 52.0917 77.315 52.5166L74.5586 54.8952C74.4535 54.9859 74.456 55.1496 74.5639 55.2371L77.2114 57.3833C77.7622 57.8298 78.0393 58.5345 77.9207 59.2336C76.2329 69.1843 72.2367 75.7207 69.644 78.536C69.2611 78.9518 68.6251 78.6656 68.6251 78.1004V62.9081C68.6251 62.7162 68.5427 62.5335 68.3988 62.4066L64.6674 59.1155C64.5235 58.9885 64.2971 59.0907 64.2971 59.2827V82.6598C64.2971 83.279 64.0112 83.866 63.5174 84.2396C60.6598 86.4021 58.7324 87.4941 55.4128 89.0112C54.972 89.2127 54.4712 88.8895 54.4712 88.4049V21.1966ZM64.2971 50.176C64.2971 50.3671 64.5218 50.4696 64.6661 50.3444L67.1434 48.1946C67.3346 48.0287 67.4135 47.7699 67.3194 47.5348C67.0255 46.8003 66.2655 45.2333 64.7076 42.632C64.5919 42.4388 64.2971 42.5211 64.2971 42.7463V50.176Z" fill="url(#paint2_linear_6004_481)"/>
<path fill-rule="evenodd" clip-rule="evenodd" d="M13.4059 7.00251C12.7529 5.65723 13.3121 4.03634 14.6549 3.38215C15.9977 2.72796 17.6156 3.2882 18.2686 4.63348C18.7064 5.53543 18.5993 6.56126 18.0765 7.33659C18.2009 7.44605 18.3487 7.57338 18.5166 7.71351C19.0794 8.18298 19.862 8.79023 20.7482 9.34917C21.6384 9.91071 22.6079 10.4073 23.5462 10.6761C24.488 10.9459 25.3311 10.9676 26.0263 10.6741C26.562 10.4479 27.0804 10.0064 27.5656 9.41546C28.0471 8.82903 28.4657 8.1326 28.8119 7.45184C29.1569 6.77342 29.422 6.12657 29.601 5.64846C29.6147 5.61195 29.6278 5.57646 29.6404 5.54205C29.0699 5.29353 28.5816 4.84755 28.2882 4.24305C27.6352 2.89776 28.1944 1.27687 29.5372 0.622682C30.88 -0.0315088 32.4979 0.52873 33.1509 1.87401C33.7527 3.11374 33.325 4.58752 32.2033 5.32313L34.927 18.9009C35.2357 20.4398 34.4676 21.9932 33.0587 22.6797L18.1846 29.9261C16.7739 30.6133 15.0778 30.2576 14.0608 29.0611L5.09771 18.5167C3.84624 18.9013 2.46705 18.3267 1.87666 17.1104C1.22367 15.7651 1.78288 14.1442 3.12568 13.49C4.46848 12.8358 6.08638 13.3961 6.73937 14.7413C7.02186 15.3233 7.07748 15.9569 6.94093 16.5415L6.99021 16.5572C7.47609 16.7114 8.14767 16.9019 8.89335 17.049C9.6416 17.1965 10.4468 17.2968 11.2046 17.2795C11.9682 17.262 12.6349 17.1261 13.1434 16.8436C13.803 16.4771 14.3066 15.7992 14.6764 14.8905C15.0448 13.9851 15.2535 12.9145 15.3623 11.8662C15.4707 10.8228 15.4772 9.83103 15.4562 9.09768C15.4496 8.869 15.4403 8.66632 15.4308 8.49605C14.5823 8.36602 13.8097 7.83434 13.4059 7.00251ZM15.2567 4.62201C14.5974 4.94321 14.3229 5.73906 14.6435 6.39959C14.9641 7.06012 15.7585 7.33519 16.4178 7.01399C17.0771 6.69278 17.3517 5.89693 17.031 5.2364C16.7104 4.57588 15.916 4.3008 15.2567 4.62201ZM17.0196 8.25384C16.9474 8.28903 16.8743 8.3207 16.8007 8.34893C16.8123 8.54457 16.8238 8.78406 16.8317 9.05797C16.854 9.83092 16.8476 10.8869 16.7311 12.0089C16.6151 13.1261 16.3869 14.3388 15.9507 15.4109C15.5158 16.4796 14.8471 17.4735 13.8108 18.0493C13.0346 18.4806 12.1207 18.6376 11.236 18.6578C10.3454 18.6781 9.43469 18.5609 8.62757 18.4017C7.81787 18.242 7.09466 18.0366 6.5746 17.8715C6.469 17.838 6.37154 17.8061 6.28317 17.7764L6.27941 17.7805L14.4741 27.4209L33.3844 18.2081L30.9365 6.00556C30.9215 6.04652 30.9059 6.08888 30.8895 6.13254C30.698 6.64428 30.4127 7.34105 30.0381 8.07771C29.6646 8.81202 29.1943 9.6021 28.6284 10.2913C28.0662 10.976 27.3787 11.5992 26.5607 11.9446C25.4687 12.4056 24.2755 12.3189 23.1679 12.0016C22.0567 11.6834 20.9637 11.1143 20.015 10.5159C19.0621 9.91483 18.2292 9.26779 17.636 8.77296C17.3914 8.5689 17.1864 8.38976 17.0294 8.24906L17.0196 8.25384ZM3.11423 16.5074C2.79361 15.8469 3.06818 15.0511 3.72749 14.7299C4.3868 14.4087 5.18118 14.6837 5.5018 15.3443C5.82241 16.0048 5.54784 16.8006 4.88853 17.1218C4.22922 17.443 3.43484 17.168 3.11423 16.5074ZM17.5828 28.6862C16.8766 29.0302 16.0513 28.9387 15.4428 28.482L33.618 19.6274C33.6008 20.389 33.1629 21.0958 32.4568 21.4398L17.5828 28.6862ZM29.5258 3.64012C29.2052 2.97959 29.4797 2.18374 30.139 1.86254C30.7983 1.54133 31.5927 1.81641 31.9133 2.47694C32.234 3.13746 31.9594 3.93331 31.3001 4.25452C30.6408 4.57572 29.8464 4.30065 29.5258 3.64012Z" fill="url(#paint3_linear_6004_481)"/>
<path d="M16.8007 8.34893C16.8743 8.3207 16.9474 8.28903 17.0196 8.25384L17.0294 8.24906C17.1864 8.38976 17.3914 8.5689 17.636 8.77296C18.2292 9.26779 19.0621 9.91483 20.015 10.5159C20.9637 11.1143 22.0567 11.6834 23.1679 12.0016C24.2755 12.3189 25.4687 12.4056 26.5607 11.9446C27.3787 11.5992 28.0662 10.976 28.6284 10.2913C29.1943 9.6021 29.6646 8.81202 30.0381 8.07771C30.4127 7.34105 30.698 6.64428 30.8895 6.13254C30.9059 6.08888 30.9215 6.04652 30.9365 6.00556L33.3844 18.2081L14.4741 27.4209L6.27941 17.7805L6.28317 17.7764C6.37154 17.8061 6.469 17.838 6.5746 17.8715C7.09466 18.0366 7.81787 18.242 8.62757 18.4017C9.43469 18.5609 10.3454 18.6781 11.236 18.6578C12.1207 18.6376 13.0346 18.4806 13.8108 18.0493C14.8471 17.4735 15.5158 16.4796 15.9507 15.4109C16.3869 14.3388 16.6151 13.1261 16.7311 12.0089C16.8476 10.8869 16.854 9.83092 16.8317 9.05797C16.8238 8.78406 16.8123 8.54457 16.8007 8.34893Z" fill="#FCFBFF"/>
<path d="M15.4428 28.482C16.0513 28.9387 16.8766 29.0302 17.5828 28.6862L32.4568 21.4398C33.1629 21.0958 33.6008 20.389 33.618 19.6274L15.4428 28.482Z" fill="#FCFBFF"/>
<path d="M3.72749 14.7299C3.06818 15.0511 2.79361 15.8469 3.11423 16.5074C3.43484 17.168 4.22922 17.443 4.88853 17.1218C5.54784 16.8006 5.82241 16.0048 5.5018 15.3443C5.18118 14.6837 4.3868 14.4087 3.72749 14.7299Z" fill="#FCFBFF"/>
<path d="M14.6435 6.39959C14.3229 5.73906 14.5974 4.94321 15.2567 4.62201C15.916 4.3008 16.7104 4.57588 17.031 5.2364C17.3517 5.89693 17.0771 6.69278 16.4178 7.01399C15.7585 7.33519 14.9641 7.06012 14.6435 6.39959Z" fill="#FCFBFF"/>
<path d="M30.139 1.86254C29.4797 2.18374 29.2052 2.97959 29.5258 3.64012C29.8464 4.30065 30.6408 4.57572 31.3001 4.25452C31.9594 3.93331 32.234 3.13746 31.9133 2.47694C31.5927 1.81641 30.7983 1.54133 30.139 1.86254Z" fill="#FCFBFF"/>
<defs>
<linearGradient id="paint0_linear_6004_481" x1="78" y1="2.54205" x2="-9.84379" y2="8.54379" gradientUnits="userSpaceOnUse">
<stop stop-color="#8A6EDA"/>
<stop offset="0.381042" stop-color="#B76EDA"/>
<stop offset="0.741061" stop-color="#DB75E0"/>
<stop offset="1" stop-color="#EBB1EB"/>
</linearGradient>
<linearGradient id="paint1_linear_6004_481" x1="78" y1="2.54205" x2="-9.84379" y2="8.54379" gradientUnits="userSpaceOnUse">
<stop stop-color="#8A6EDA"/>
<stop offset="0.381042" stop-color="#B76EDA"/>
<stop offset="0.741061" stop-color="#DB75E0"/>
<stop offset="1" stop-color="#EBB1EB"/>
</linearGradient>
<linearGradient id="paint2_linear_6004_481" x1="78" y1="2.54205" x2="-9.84379" y2="8.54379" gradientUnits="userSpaceOnUse">
<stop stop-color="#8A6EDA"/>
<stop offset="0.381042" stop-color="#B76EDA"/>
<stop offset="0.741061" stop-color="#DB75E0"/>
<stop offset="1" stop-color="#EBB1EB"/>
</linearGradient>
<linearGradient id="paint3_linear_6004_481" x1="36.8377" y1="22.5771" x2="-7.55287" y2="8.4686" gradientUnits="userSpaceOnUse">
<stop stop-color="#DE9927"/>
<stop offset="1" stop-color="#F5CC88"/>
</linearGradient>
</defs>
</svg>
