<svg version="1.2" xmlns="http://www.w3.org/2000/svg" viewBox="0 0 810 810" width="810" height="810">
	<title>medal-silver</title>
	<style>
		.s0 { fill: #b88c1d } 
		.s1 { fill: #c9d1d1 } 
		.s2 { fill: #bc4330 } 
		.s3 { fill: #ff5245 } 
	</style>
	<g id="medal_silver">
		<path id="Path_109" class="s0" d="m685.4 517.5c0 114.2-68.8 217.2-174.4 260.9-105.5 43.8-227 19.6-307.8-61.2-80.8-80.8-104.9-202.2-61.2-307.8 43.7-105.5 146.7-174.3 260.9-174.3 37.1 0 73.8 7.3 108.1 21.5 34.3 14.2 65.4 35 91.6 61.2 26.3 26.2 47.1 57.4 61.3 91.6 14.2 34.3 21.5 71 21.5 108.1z"/>
		<path id="Path_110" class="s1" d="m594.7 517.5c0 77.6-46.7 147.5-118.4 177.2-71.7 29.7-154.1 13.3-209-41.6-54.8-54.9-71.2-137.3-41.6-209 29.7-71.7 99.7-118.4 177.2-118.4 25.2 0 50.2 5 73.4 14.6 23.3 9.6 44.4 23.8 62.3 41.6 17.8 17.8 31.9 38.9 41.5 62.2 9.7 23.3 14.6 48.2 14.6 73.4z"/>
		<path id="ddd" class="s0" d="m550 517.5c0 59.5-35.8 113.2-90.8 136-55 22.7-118.3 10.1-160.4-32-42.1-42.1-54.6-105.4-31.8-160.3 22.7-55 76.4-90.9 135.9-90.9 19.4 0.1 38.5 3.9 56.3 11.3 17.9 7.4 34.1 18.2 47.8 31.9 13.6 13.6 24.5 29.8 31.9 47.7 7.3 17.9 11.1 37 11.1 56.3z"/>
		<path id="Path_112" class="s2" d="m544.4 0l-262.8 262.8c21.2-10.2 43.6-17.7 66.7-22.3 23.1-4.6 46.7-6.3 70.2-5 23.5 1.4 46.8 5.6 69.3 12.8 22.4 7.1 43.9 17 63.8 29.5l109.6-109.7 60.5-60.4v-107.7z"/>
		<path id="Path_113" class="s3" d="m254.3 277.7c19.9-12.5 41.4-22.4 63.8-29.5 22.5-7.1 45.7-11.4 69.2-12.7 23.5-1.3 47.1 0.4 70.2 5 23.1 4.6 45.5 12.1 66.7 22.3l-262.7-262.8h-177.3v107.7l60.4 60.4z"/>
	</g>
</svg>