<svg width="424" height="53" viewBox="0 0 424 53" fill="none" xmlns="http://www.w3.org/2000/svg">
<path d="M31.3547 35.3605H26.7295L29.6224 18.5707H34.2474L31.3547 35.3605Z" fill="#15195A"/>
<path d="M48.1214 18.9812C47.2091 18.6414 45.7622 18.2664 43.973 18.2664C39.4054 18.2664 36.189 20.5525 36.1693 23.821C36.1314 26.2325 38.4722 27.5719 40.2229 28.376C42.0123 29.1976 42.6206 29.7339 42.6206 30.4662C42.6024 31.591 41.1746 32.1095 39.843 32.1095C37.9964 32.1095 37.007 31.8422 35.5033 31.2164L34.8943 30.9482L34.2471 34.7171C35.3319 35.181 37.3305 35.5926 39.4054 35.6107C44.2585 35.6107 47.4181 33.3599 47.4555 29.8768C47.474 27.9655 46.2379 26.501 43.5731 25.3043C41.9554 24.536 40.9647 24.018 40.9647 23.232C40.9837 22.5174 41.8027 21.7855 43.6288 21.7855C45.1324 21.7497 46.2372 22.0889 47.0741 22.4284L47.4924 22.6067L48.1214 18.9812Z" fill="#15195A"/>
<path fill-rule="evenodd" clip-rule="evenodd" d="M56.4009 18.5707H59.9785L63.7099 35.3602H59.4274C59.4274 35.3602 59.0083 33.4311 58.8755 32.8417H52.9371C52.7654 33.288 51.9664 35.3602 51.9664 35.3602H47.1133L53.9834 19.9638C54.4594 18.8741 55.2976 18.5707 56.4009 18.5707ZM56.1155 24.7148C56.1155 24.7148 54.6498 28.4479 54.2689 29.4125H58.1134C57.9232 28.573 57.0473 24.5541 57.0473 24.5541L56.724 23.1074C56.5879 23.48 56.3911 23.9921 56.2583 24.3376C56.1683 24.5718 56.1077 24.7293 56.1155 24.7148Z" fill="#15195A"/>
<path fill-rule="evenodd" clip-rule="evenodd" d="M6.68941 18.5707H14.1309C15.1396 18.6061 15.958 18.9097 16.2244 19.9821L17.8421 27.6985C17.8418 27.6978 17.8415 27.6971 17.8413 27.6965C17.8414 27.6969 17.8416 27.6973 17.8417 27.6978L18.3367 30.0197L22.8663 18.5708H27.7571L20.487 35.3427H15.596L11.4735 20.7536C10.0512 19.9732 8.42805 19.3456 6.61328 18.91L6.68941 18.5707Z" fill="#15195A"/>
<path fill-rule="evenodd" clip-rule="evenodd" d="M95.4334 39.5066V41.2776V43.0487H94.6581V42.6186C94.4122 42.9376 94.0391 43.1378 93.5319 43.1378C92.532 43.1378 91.7481 42.3599 91.7481 41.2776C91.7481 40.1962 92.532 39.4175 93.5319 39.4175C94.0391 39.4175 94.4122 39.6177 94.6581 39.9366V39.5066H95.4334ZM93.6279 40.1436C92.9568 40.1436 92.5461 40.655 92.5461 41.2776C92.5461 41.9002 92.9568 42.4117 93.6279 42.4117C94.2692 42.4117 94.7021 41.9223 94.7021 41.2776C94.7021 40.633 94.2692 40.1436 93.6279 40.1436ZM121.634 41.2776C121.634 40.655 122.045 40.1436 122.716 40.1436C123.358 40.1436 123.79 40.633 123.79 41.2776C123.79 41.9223 123.358 42.4117 122.716 42.4117C122.045 42.4117 121.634 41.9002 121.634 41.2776ZM124.521 38.0841V41.2776V43.0487H123.745V42.6186C123.499 42.9376 123.126 43.1378 122.619 43.1378C121.619 43.1378 120.835 42.3599 120.835 41.2776C120.835 40.1962 121.619 39.4175 122.619 39.4175C123.126 39.4175 123.499 39.6177 123.745 39.9366V38.0841H124.521ZM105.057 40.1071C105.557 40.1071 105.878 40.4184 105.96 40.9663H104.109C104.192 40.4548 104.505 40.1071 105.057 40.1071ZM103.297 41.2776C103.297 40.1732 104.028 39.4175 105.073 39.4175C106.072 39.4175 106.758 40.1732 106.766 41.2776C106.766 41.3811 106.758 41.4778 106.751 41.5737H104.103C104.215 42.2115 104.67 42.4414 105.169 42.4414C105.527 42.4414 105.908 42.3074 106.207 42.0707L106.587 42.6416C106.154 43.0046 105.662 43.1378 105.125 43.1378C104.058 43.1378 103.297 42.4041 103.297 41.2776ZM114.434 41.2776C114.434 40.655 114.845 40.1436 115.516 40.1436C116.157 40.1436 116.59 40.633 116.59 41.2776C116.59 41.9223 116.157 42.4117 115.516 42.4117C114.845 42.4117 114.434 41.9002 114.434 41.2776ZM117.322 39.5066V41.2776V43.0487H116.546V42.6186C116.3 42.9376 115.927 43.1378 115.42 43.1378C114.42 43.1378 113.636 42.3599 113.636 41.2776C113.636 40.1962 114.42 39.4175 115.42 39.4175C115.927 39.4175 116.3 39.6177 116.546 39.9366V39.5066H117.322ZM110.056 41.2776C110.056 42.3523 110.809 43.1378 111.958 43.1378C112.496 43.1378 112.853 43.019 113.241 42.7153L112.869 42.0928C112.578 42.3006 112.272 42.4117 111.935 42.4117C111.316 42.4041 110.861 41.9596 110.861 41.2776C110.861 40.5957 111.316 40.1512 111.935 40.1436C112.272 40.1436 112.578 40.2547 112.869 40.4625L113.241 39.8399C112.853 39.5362 112.496 39.4175 111.958 39.4175C110.809 39.4175 110.056 40.2029 110.056 41.2776ZM119.112 39.9366C119.313 39.6253 119.605 39.4175 120.052 39.4175C120.209 39.4175 120.433 39.4472 120.604 39.5142L120.365 40.2403C120.201 40.1732 120.037 40.1512 119.88 40.1512C119.373 40.1512 119.12 40.4769 119.12 41.063V43.0487H118.343V39.5065H119.112V39.9366ZM99.2678 39.7882C98.8946 39.5439 98.3806 39.4175 97.8136 39.4175C96.9102 39.4175 96.3287 39.8475 96.3287 40.5516C96.3287 41.1292 96.7617 41.4854 97.5592 41.5966L97.9255 41.6483C98.3507 41.7077 98.5514 41.8188 98.5514 42.019C98.5514 42.2929 98.2679 42.449 97.7385 42.449C97.2014 42.449 96.8137 42.2785 96.5525 42.0783L96.187 42.678C96.6122 42.9893 97.1493 43.1378 97.7308 43.1378C98.7606 43.1378 99.3574 42.656 99.3574 41.9816C99.3574 41.3591 98.8878 41.0333 98.1116 40.9222L97.7462 40.8696C97.4106 40.8255 97.1416 40.7594 97.1416 40.5219C97.1416 40.2623 97.3952 40.1071 97.8204 40.1071C98.2756 40.1071 98.7162 40.2776 98.9322 40.4107L99.2678 39.7882ZM108.333 39.9366C108.534 39.6253 108.825 39.4175 109.272 39.4175C109.429 39.4175 109.653 39.4472 109.825 39.5142L109.586 40.2403C109.422 40.1732 109.258 40.1512 109.101 40.1512C108.593 40.1512 108.34 40.4769 108.34 41.063V43.0487H107.564V39.5065H108.333V39.9366ZM102.655 39.5066H101.387V38.4319H100.604V39.5066H99.8804V40.2106H100.604V41.8264C100.604 42.6483 100.925 43.1378 101.842 43.1378C102.178 43.1378 102.566 43.0343 102.812 42.8638L102.588 42.2039C102.357 42.337 102.103 42.4041 101.902 42.4041C101.514 42.4041 101.387 42.1666 101.387 41.8112V40.2106H102.655V39.5066ZM91.0624 40.8255V43.0487H90.2785V41.0774C90.2785 40.4769 90.0249 40.1436 89.4955 40.1436C88.9807 40.1436 88.6229 40.4701 88.6229 41.0851V43.0487H87.839V41.0774C87.839 40.4769 87.5786 40.1436 87.0637 40.1436C86.5335 40.1436 86.1902 40.4701 86.1902 41.0851V43.0487H85.4072V39.5066H86.1834V39.9434C86.4746 39.5286 86.8468 39.4175 87.2277 39.4175C87.7724 39.4175 88.1601 39.655 88.406 40.0477C88.7348 39.5507 89.2044 39.4099 89.6595 39.4175C90.5253 39.4251 91.0624 39.9883 91.0624 40.8255Z" fill="#231F20"/>
<path d="M110.762 33.4877H99.0107V12.5097H110.762V33.4877Z" fill="#FF5F00"/>
<path d="M99.7564 22.9991C99.7564 18.7437 101.762 14.953 104.886 12.5101C102.602 10.7238 99.7189 9.6576 96.586 9.6576C89.1693 9.6576 83.1572 15.6307 83.1572 22.9991C83.1572 30.3676 89.1693 36.3407 96.586 36.3407C99.7189 36.3407 102.602 35.2745 104.886 33.4882C101.762 31.0453 99.7564 27.2546 99.7564 22.9991Z" fill="#EB001B"/>
<path d="M126.615 22.9991C126.615 30.3676 120.603 36.3407 113.186 36.3407C110.053 36.3407 107.171 35.2745 104.886 33.4882C108.01 31.0453 110.016 27.2546 110.016 22.9991C110.016 18.7437 108.01 14.953 104.886 12.5101C107.171 10.7238 110.053 9.6576 113.186 9.6576C120.603 9.6576 126.615 15.6307 126.615 22.9991Z" fill="#F79E1B"/>
<path d="M180.528 33.7435H168.651V12.5403H180.528V33.7435Z" fill="#6C6BBD"/>
<path d="M169.404 23.1423C169.404 18.8412 171.432 15.0098 174.589 12.5407C172.28 10.7352 169.366 9.65758 166.2 9.65758C158.704 9.65758 152.627 15.6948 152.627 23.1423C152.627 30.5898 158.704 36.6271 166.2 36.6271C169.366 36.6271 172.28 35.5494 174.589 33.7439C171.432 31.2748 169.404 27.4435 169.404 23.1423Z" fill="#EB001B"/>
<path d="M196.551 23.1423C196.551 30.5898 190.475 36.6271 182.978 36.6271C179.812 36.6271 176.898 35.5494 174.589 33.7439C177.747 31.2748 179.774 27.4435 179.774 23.1423C179.774 18.8412 177.747 15.0098 174.589 12.5407C176.898 10.7352 179.812 9.65758 182.978 9.65758C190.475 9.65758 196.551 15.6948 196.551 23.1423Z" fill="#0099DF"/>
<path d="M184.546 39.7349C184.704 39.7349 184.931 39.7649 185.105 39.8326L184.863 40.5665C184.698 40.4987 184.532 40.4764 184.373 40.4764C183.86 40.4764 183.604 40.8056 183.604 41.3972V43.405H182.82V39.8249H183.596V40.2595C183.8 39.9449 184.094 39.7349 184.546 39.7349Z" fill="#231F20"/>
<path d="M181.648 40.5364H180.367V42.1542C180.367 42.5134 180.495 42.7535 180.887 42.7535C181.091 42.7535 181.347 42.6857 181.58 42.5511L181.806 43.2173C181.558 43.3896 181.166 43.495 180.827 43.495C179.899 43.495 179.575 43.0004 179.575 42.1688V40.5364H178.844V39.8249H179.575V38.7386H180.367V39.8249H181.648V40.5364Z" fill="#231F20"/>
<path fill-rule="evenodd" clip-rule="evenodd" d="M172.585 39.7348C173.596 39.7348 174.289 40.4987 174.297 41.6149C174.297 41.7187 174.29 41.8149 174.282 41.9118L174.282 41.9142H171.605C171.718 42.558 172.178 42.7903 172.683 42.7903C173.045 42.7903 173.43 42.6557 173.731 42.4157L174.116 42.9927C173.678 43.3596 173.181 43.4942 172.638 43.4942C171.56 43.4942 170.791 42.7526 170.791 41.6149C170.791 40.4987 171.529 39.7348 172.585 39.7348ZM172.57 40.431C172.012 40.431 171.696 40.7833 171.612 41.3003H173.483C173.4 40.7456 173.075 40.431 172.57 40.431Z" fill="#231F20"/>
<path d="M177.742 40.7388C177.524 40.6033 177.08 40.431 176.62 40.431C176.19 40.431 175.933 40.5887 175.933 40.8511C175.933 41.0903 176.204 41.158 176.544 41.2026L176.913 41.2549C177.698 41.368 178.172 41.6972 178.172 42.3265C178.172 43.0081 177.569 43.495 176.529 43.495C175.94 43.495 175.398 43.345 174.968 43.0304L175.337 42.4234C175.601 42.6257 175.994 42.798 176.537 42.798C177.072 42.798 177.358 42.6412 177.358 42.3634C177.358 42.1619 177.155 42.0487 176.725 41.9896L176.356 41.9373C175.549 41.8241 175.111 41.4649 175.111 40.8811C175.111 40.1695 175.7 39.7348 176.612 39.7348C177.185 39.7348 177.705 39.8626 178.082 40.1095L177.742 40.7388Z" fill="#231F20"/>
<path fill-rule="evenodd" clip-rule="evenodd" d="M188.189 39.8797C187.951 39.7829 187.692 39.7348 187.413 39.7348C187.133 39.7348 186.874 39.7829 186.636 39.8797C186.398 39.9758 186.193 40.1086 186.021 40.2775C185.848 40.4464 185.712 40.6462 185.614 40.8759C185.516 41.1066 185.467 41.3569 185.467 41.627C185.467 41.897 185.516 42.1473 185.614 42.378C185.712 42.6077 185.848 42.8083 186.021 42.9772C186.193 43.1461 186.398 43.2781 186.636 43.375C186.874 43.471 187.133 43.5191 187.413 43.5191C187.692 43.5191 187.951 43.471 188.189 43.375C188.428 43.2781 188.634 43.1461 188.807 42.9772C188.982 42.8083 189.117 42.6077 189.216 42.378C189.314 42.1473 189.363 41.897 189.363 41.627C189.363 41.3569 189.314 41.1066 189.216 40.8759C189.117 40.6462 188.982 40.4464 188.807 40.2775C188.634 40.1086 188.428 39.9758 188.189 39.8797ZM186.963 40.5587C187.102 40.503 187.251 40.4747 187.413 40.4747C187.574 40.4747 187.724 40.503 187.862 40.5587C188.001 40.6153 188.122 40.6942 188.223 40.7954C188.326 40.8965 188.405 41.0183 188.464 41.1597C188.522 41.3012 188.55 41.4572 188.55 41.627C188.55 41.7976 188.522 41.9527 188.464 42.0942C188.405 42.2356 188.326 42.3574 188.223 42.4586C188.122 42.5597 188.001 42.6386 187.862 42.6952C187.724 42.7518 187.574 42.7792 187.413 42.7792C187.251 42.7792 187.102 42.7518 186.963 42.6952C186.825 42.6386 186.705 42.5597 186.604 42.4586C186.503 42.3574 186.424 42.2356 186.366 42.0942C186.308 41.9527 186.279 41.7976 186.279 41.627C186.279 41.4572 186.308 41.3012 186.366 41.1597C186.424 41.0183 186.503 40.8965 186.604 40.7954C186.705 40.6942 186.825 40.6153 186.963 40.5587Z" fill="#231F20"/>
<path fill-rule="evenodd" clip-rule="evenodd" d="M169.949 39.8249V43.405H169.166V42.9704C168.916 43.2927 168.54 43.495 168.027 43.495C167.017 43.495 166.225 42.708 166.225 41.6149C166.225 40.521 167.017 39.7348 168.027 39.7348C168.54 39.7348 168.916 39.9372 169.166 40.2595V39.8249H169.949ZM168.125 40.4687C167.446 40.4687 167.031 40.9857 167.031 41.6149C167.031 42.2442 167.446 42.7603 168.125 42.7603C168.773 42.7603 169.21 42.2665 169.21 41.6149C169.21 40.9634 168.773 40.4687 168.125 40.4687Z" fill="#231F20"/>
<path d="M165.531 43.405V41.158C165.531 40.3118 164.989 39.7426 164.114 39.7349C163.654 39.7271 163.179 39.8695 162.847 40.3718C162.599 39.9749 162.206 39.7349 161.656 39.7349C161.271 39.7349 160.894 39.8472 160.6 40.2664V39.8249H159.816V43.405H160.608V41.4203C160.608 40.7988 160.955 40.4687 161.49 40.4687C162.01 40.4687 162.274 40.8056 162.274 41.4126V43.405H163.066V41.4203C163.066 40.7988 163.428 40.4687 163.948 40.4687C164.484 40.4687 164.74 40.8056 164.74 41.4126V43.405H165.531Z" fill="#231F20"/>
<path fill-rule="evenodd" clip-rule="evenodd" d="M231.764 26.8331C231.764 29.7616 234.061 32.0323 237.016 32.0323C237.852 32.0323 238.568 31.868 239.45 31.4519V29.1642C238.674 29.9418 237.987 30.2555 237.107 30.2555C235.152 30.2555 233.764 28.8363 233.764 26.8185C233.764 24.9057 235.196 23.3968 237.016 23.3968C237.942 23.3968 238.643 23.7275 239.45 24.5177V22.2312C238.598 21.7986 237.898 21.6192 237.062 21.6192C234.121 21.6192 231.764 23.9361 231.764 26.8331ZM226.783 24.4133C226.783 24.9518 227.125 25.2363 228.29 25.6678C230.498 26.4765 231.152 27.1929 231.152 28.7761C231.152 30.7046 229.737 32.0476 227.72 32.0476C226.243 32.0476 225.169 31.4652 224.274 30.1507L225.528 28.9416C225.975 29.8069 226.721 30.2708 227.647 30.2708C228.513 30.2708 229.154 29.6726 229.154 28.8654C229.154 28.447 228.96 28.0878 228.572 27.8342C228.377 27.7141 227.99 27.5354 227.23 27.2668C225.407 26.6101 224.782 25.9072 224.782 24.5345C224.782 22.904 226.125 21.6799 227.886 21.6799C228.977 21.6799 229.975 22.0533 230.81 22.7842L229.794 24.1157C229.289 23.5483 228.81 23.3089 228.229 23.3089C227.392 23.3089 226.783 23.7858 226.783 24.4133ZM221.602 31.808H223.543V21.8445H221.602V31.808ZM217.635 29.3291C217.025 29.8807 216.233 30.1213 214.978 30.1213H214.457V23.5324H214.978C216.233 23.5324 216.994 23.7572 217.635 24.3385C218.306 24.9367 218.71 25.8643 218.71 26.8186C218.71 27.7751 218.306 28.7309 217.635 29.3291ZM215.367 21.8445H212.518V31.8077H215.352C216.859 31.8077 217.947 31.452 218.903 30.6575C220.038 29.7171 220.709 28.2994 220.709 26.8332C220.709 23.8928 218.515 21.8445 215.367 21.8445ZM252.189 21.8445L254.842 28.5369L257.531 21.8445H259.635L255.336 32.0636H254.291L250.068 21.8445H252.189ZM260.513 31.8078H266.017V30.1211H262.452V27.4316H265.886V25.744H262.452V23.5326H266.017V21.8443H260.513V31.8078ZM269.241 26.4314H269.808C271.048 26.4314 271.705 25.8921 271.705 24.8905C271.705 23.9209 271.048 23.4139 269.838 23.4139H269.241V26.4314ZM270.18 21.8442C272.419 21.8442 273.702 22.9204 273.702 24.7858C273.702 26.3113 272.897 27.3129 271.435 27.6104L274.568 31.8077H272.181L269.494 27.8052H269.241V31.8077H267.302V21.8442H270.18Z" fill="#1D1D1B"/>
<path fill-rule="evenodd" clip-rule="evenodd" d="M249.839 29.7164C251.415 27.2499 250.695 23.9732 248.232 22.396C245.769 20.8188 242.495 21.5388 240.92 24.0053C239.345 26.4712 240.064 29.749 242.528 31.3262C244.991 32.9034 248.264 32.1823 249.839 29.7164Z" fill="url(#paint0_linear_6025_1497)"/>
<path fill-rule="evenodd" clip-rule="evenodd" d="M288.974 31.4888C288.974 30.5481 288.483 30.6099 288.014 30.6V30.3281C288.421 30.3479 288.838 30.3479 289.247 30.3479C289.685 30.3479 290.281 30.3281 291.054 30.3281C293.76 30.3281 295.233 32.1369 295.233 33.9892C295.233 35.0257 294.627 37.6298 290.929 37.6298C290.396 37.6298 289.904 37.6091 289.414 37.6091C288.944 37.6091 288.483 37.6188 288.014 37.6298V37.3576C288.64 37.2943 288.944 37.2738 288.974 36.5626V31.4888ZM289.997 36.3948C289.997 37.2006 290.573 37.2943 291.084 37.2943C293.342 37.2943 294.083 35.5896 294.083 34.0312C294.083 32.0751 292.829 30.6632 290.813 30.6632C290.383 30.6632 290.186 30.6938 289.997 30.705V36.3948Z" fill="#1A1919"/>
<path fill-rule="evenodd" clip-rule="evenodd" d="M295.6 37.3576H295.798C296.09 37.3576 296.299 37.3576 296.299 37.0116V34.177C296.299 33.7174 296.143 33.6539 295.756 33.4453V33.2783C296.247 33.1305 296.832 32.9332 296.874 32.9017C296.947 32.8597 297.009 32.8485 297.062 32.8485C297.113 32.8485 297.135 32.9114 297.135 32.9959V37.0116C297.135 37.3576 297.365 37.3576 297.658 37.3576H297.835V37.6297C297.48 37.6297 297.113 37.609 296.738 37.609C296.362 37.609 295.986 37.6187 295.6 37.6297V37.3576ZM296.718 31.2382C296.445 31.2382 296.206 30.9872 296.206 30.7153C296.206 30.4533 296.457 30.2122 296.718 30.2122C296.989 30.2122 297.23 30.4326 297.23 30.7153C297.23 30.9982 296.999 31.2382 296.718 31.2382Z" fill="#1A1919"/>
<path fill-rule="evenodd" clip-rule="evenodd" d="M298.826 34.2399C298.826 33.8536 298.711 33.7491 298.221 33.55V33.3514C298.669 33.2051 299.097 33.0685 299.599 32.8485C299.631 32.8485 299.661 32.8694 299.661 32.953V33.6332C300.258 33.2051 300.77 32.8485 301.471 32.8485C302.358 32.8485 302.671 33.4973 302.671 34.3132V37.0116C302.671 37.3576 302.901 37.3576 303.194 37.3576H303.382V37.6297C303.015 37.6297 302.65 37.609 302.274 37.609C301.898 37.609 301.522 37.6187 301.145 37.6297V37.3576H301.334C301.627 37.3576 301.835 37.3576 301.835 37.0116V34.3035C301.835 33.7065 301.471 33.4139 300.875 33.4139C300.54 33.4139 300.007 33.6853 299.661 33.9165V37.0116C299.661 37.3576 299.892 37.3576 300.185 37.3576H300.372V37.6297C300.007 37.6297 299.641 37.609 299.264 37.609C298.889 37.609 298.512 37.6187 298.137 37.6297V37.3576H298.325C298.617 37.3576 298.826 37.3576 298.826 37.0116V34.2399Z" fill="#1A1919"/>
<path fill-rule="evenodd" clip-rule="evenodd" d="M304.177 34.7428C304.156 34.837 304.156 34.9936 304.177 35.3495C304.238 36.343 304.877 37.1585 305.712 37.1585C306.288 37.1585 306.737 36.8446 307.123 36.4583L307.269 36.6048C306.788 37.2428 306.193 37.787 305.337 37.787C303.675 37.787 303.341 36.1752 303.341 35.5062C303.341 33.4557 304.72 32.8485 305.45 32.8485C306.297 32.8485 307.207 33.382 307.217 34.4912C307.217 34.5547 307.217 34.6168 307.207 34.6797L307.113 34.7428H304.177ZM306.027 34.4078C306.287 34.4078 306.318 34.2716 306.318 34.1456C306.318 33.613 305.994 33.184 305.409 33.184C304.772 33.184 304.333 33.6539 304.208 34.4078H306.027Z" fill="#1A1919"/>
<path fill-rule="evenodd" clip-rule="evenodd" d="M307.457 37.3576H307.739C308.031 37.3576 308.24 37.3576 308.24 37.0116V34.0727C308.24 33.7491 307.854 33.6853 307.697 33.6018V33.4453C308.459 33.1208 308.878 32.8485 308.973 32.8485C309.034 32.8485 309.066 32.88 309.066 32.9851V33.9267H309.088C309.348 33.5188 309.788 32.8485 310.425 32.8485C310.686 32.8485 311.02 33.0263 311.02 33.4031C311.02 33.6853 310.822 33.9376 310.53 33.9376C310.205 33.9376 310.205 33.6853 309.839 33.6853C309.661 33.6853 309.076 33.9267 309.076 34.5547V37.0116C309.076 37.3576 309.285 37.3576 309.578 37.3576H310.162V37.6297C309.588 37.6187 309.15 37.609 308.7 37.609C308.272 37.609 307.833 37.6187 307.457 37.6297V37.3576Z" fill="#1A1919"/>
<path fill-rule="evenodd" clip-rule="evenodd" d="M311.479 36.1752C311.615 36.8655 312.032 37.4522 312.797 37.4522C313.412 37.4522 313.642 37.0752 313.642 36.7093C313.642 35.4743 311.365 35.8723 311.365 34.1883C311.365 33.6018 311.835 32.8488 312.984 32.8488C313.318 32.8488 313.767 32.9436 314.174 33.153L314.248 34.2191H314.008C313.903 33.5604 313.538 33.184 312.869 33.184C312.451 33.184 312.054 33.4242 312.054 33.8741C312.054 35.0988 314.477 34.7215 314.477 36.3639C314.477 37.0538 313.924 37.787 312.681 37.787C312.263 37.787 311.771 37.6403 311.407 37.4311L311.291 36.228L311.479 36.1752Z" fill="#1A1919"/>
<path fill-rule="evenodd" clip-rule="evenodd" d="M323.913 32.2209H323.652C323.454 30.9982 322.586 30.5059 321.417 30.5059C320.214 30.5059 318.47 31.3108 318.47 33.8213C318.47 35.9352 319.975 37.4522 321.583 37.4522C322.617 37.4522 323.475 36.7406 323.684 35.6415L323.924 35.704L323.684 37.2318C323.245 37.5042 322.064 37.7871 321.374 37.7871C318.93 37.7871 317.384 36.2071 317.384 33.8537C317.384 31.7086 319.296 30.1704 321.344 30.1704C322.19 30.1704 323.004 30.4432 323.809 30.7259L323.913 32.2209Z" fill="#1A1919"/>
<path fill-rule="evenodd" clip-rule="evenodd" d="M324.289 37.3576H324.487C324.78 37.3576 324.989 37.3576 324.989 37.0116V31.1865C324.989 30.5058 324.832 30.4852 324.435 30.3699V30.2023C324.853 30.0665 325.292 29.8786 325.512 29.7522C325.625 29.6903 325.71 29.6369 325.74 29.6369C325.804 29.6369 325.825 29.7005 325.825 29.7845V37.0116C325.825 37.3576 326.055 37.3576 326.347 37.3576H326.524V37.6297C326.17 37.6297 325.804 37.609 325.428 37.609C325.052 37.609 324.676 37.6187 324.289 37.6297V37.3576Z" fill="#1A1919"/>
<path fill-rule="evenodd" clip-rule="evenodd" d="M330.998 37.0538C330.998 37.2428 331.113 37.2527 331.29 37.2527C331.416 37.2527 331.572 37.2428 331.709 37.2428V37.463C331.259 37.5043 330.402 37.7241 330.203 37.787L330.151 37.7551V36.9077C329.525 37.4201 329.044 37.787 328.301 37.787C327.737 37.787 327.152 37.4201 327.152 36.5425V33.8637C327.152 33.5914 327.111 33.3298 326.526 33.2783V33.0791C326.903 33.0687 327.737 33.0062 327.873 33.0062C327.989 33.0062 327.989 33.0791 327.989 33.3096V36.0082C327.989 36.3223 327.989 37.221 328.898 37.221C329.253 37.221 329.723 36.9497 330.161 36.5841V33.7694C330.161 33.5604 329.66 33.4453 329.285 33.3413V33.1532C330.224 33.0894 330.81 33.0062 330.914 33.0062C330.998 33.0062 330.998 33.0791 330.998 33.1945V37.0538Z" fill="#1A1919"/>
<path fill-rule="evenodd" clip-rule="evenodd" d="M333.075 33.6018C333.493 33.247 334.057 32.8486 334.632 32.8486C335.844 32.8486 336.576 33.9063 336.576 35.0462C336.576 36.4161 335.572 37.7871 334.078 37.7871C333.305 37.7871 332.898 37.5352 332.625 37.4202L332.313 37.6608L332.094 37.5462C332.187 36.9291 332.24 36.3224 332.24 35.684V31.1865C332.24 30.5059 332.083 30.4852 331.686 30.3699V30.2023C332.104 30.0666 332.542 29.8787 332.762 29.7522C332.877 29.6904 332.96 29.637 332.992 29.637C333.054 29.637 333.075 29.7007 333.075 29.7846V33.6018ZM333.076 36.4473C333.076 36.8447 333.452 37.5147 334.152 37.5147C335.27 37.5147 335.74 36.4161 335.74 35.4847C335.74 34.3553 334.884 33.4139 334.069 33.4139C333.681 33.4139 333.358 33.6654 333.076 33.9062V36.4473Z" fill="#1A1919"/>
<path fill-rule="evenodd" clip-rule="evenodd" d="M293.642 42.7613L293.654 42.7501V40.6162C293.654 40.1491 293.329 40.0808 293.159 40.0808H293.034V39.91C293.301 39.91 293.563 39.9326 293.83 39.9326C294.063 39.9326 294.297 39.91 294.529 39.91V40.0808H294.444C294.205 40.0808 293.938 40.1263 293.938 40.8037V43.3935C293.938 43.593 293.943 43.7921 293.971 43.9688H293.755L290.828 40.7009V43.0466C290.828 43.5422 290.924 43.7122 291.362 43.7122H291.459V43.8832C291.214 43.8832 290.97 43.861 290.725 43.861C290.47 43.861 290.208 43.8832 289.952 43.8832V43.7122H290.032C290.424 43.7122 290.544 43.4446 290.544 42.9906V40.5923C290.544 40.2739 290.281 40.0808 290.026 40.0808H289.952V39.91C290.168 39.91 290.39 39.9326 290.605 39.9326C290.777 39.9326 290.941 39.91 291.112 39.91L293.642 42.7613Z" fill="#1A1919"/>
<path fill-rule="evenodd" clip-rule="evenodd" d="M293.969 43.9927L293.735 43.9847L290.85 40.7651V43.0466C290.857 43.5415 290.932 43.6822 291.36 43.6876H291.482V43.9076H291.456C291.21 43.9076 290.966 43.8847 290.723 43.8847C290.469 43.8847 290.207 43.9076 289.95 43.9076H289.925V43.6876H290.03C290.406 43.6854 290.513 43.4437 290.517 42.9904V40.5932C290.516 40.29 290.268 40.1056 290.024 40.1056H289.925V39.8852H289.95C290.167 39.8852 290.39 39.9074 290.603 39.9074C290.772 39.9074 290.937 39.8852 291.128 39.894L293.627 42.7098V40.6162C293.624 40.1642 293.322 40.1093 293.157 40.1056H293.006V39.8852H293.032C293.3 39.8852 293.562 39.9074 293.827 39.9074C294.059 39.9074 294.292 39.8852 294.527 39.8852H294.552V40.1056H294.442C294.208 40.1116 293.967 40.1323 293.96 40.8037V43.3935C293.96 43.5928 293.966 43.7914 293.993 43.9642L293.999 43.9927H293.969ZM293.753 43.9431H293.941C293.916 43.7718 293.911 43.5829 293.911 43.3935V40.8037C293.911 40.1205 294.197 40.056 294.442 40.0556H294.502V39.9345C294.278 39.9362 294.053 39.9569 293.827 39.9569C293.567 39.9569 293.314 39.9362 293.057 39.9345L293.056 40.0556H293.157C293.331 40.056 293.676 40.1338 293.676 40.6162L293.668 42.768L293.657 42.779L293.638 42.7973L291.109 39.9345C290.94 39.9345 290.776 39.9569 290.603 39.9569C290.394 39.9569 290.181 39.9362 289.975 39.9345L289.974 40.0556H290.024C290.291 40.056 290.565 40.2599 290.565 40.5932V42.9903C290.565 43.4458 290.438 43.7367 290.029 43.7382L289.975 43.7367V43.8589C290.221 43.8569 290.475 43.836 290.723 43.836C290.96 43.836 291.197 43.8569 291.431 43.8589V43.7382H291.359C290.912 43.7367 290.801 43.5415 290.801 43.0466V40.6371L293.753 43.9431ZM293.641 42.7613L293.659 42.7449L293.641 42.7613ZM293.627 42.7502V42.748L293.622 42.7443L293.627 42.7502Z" fill="#1A1919"/>
<path fill-rule="evenodd" clip-rule="evenodd" d="M295.379 40.1945C294.952 40.1945 294.936 40.2975 294.85 40.7125H294.68C294.702 40.5531 294.73 40.3938 294.748 40.2288C294.771 40.0687 294.782 39.9099 294.782 39.7453H294.918C294.964 39.9162 295.106 39.9099 295.261 39.9099H298.193C298.347 39.9099 298.489 39.9043 298.501 39.7335L298.636 39.7567C298.614 39.9099 298.591 40.0638 298.575 40.2178C298.563 40.3714 298.563 40.5246 298.563 40.6782L298.393 40.7416C298.381 40.5313 298.353 40.1945 297.972 40.1945H297.039V43.2228C297.039 43.6619 297.239 43.7121 297.511 43.7121H297.62V43.8832C297.398 43.8832 297 43.8612 296.693 43.8612C296.352 43.8612 295.953 43.8832 295.731 43.8832V43.7121H295.84C296.153 43.7121 296.312 43.6841 296.312 43.2346V40.1945H295.379Z" fill="#1A1919"/>
<path fill-rule="evenodd" clip-rule="evenodd" d="M297.62 43.9075C297.396 43.9075 296.998 43.8849 296.693 43.8849C296.352 43.8849 295.954 43.9075 295.731 43.9075H295.707V43.6875H295.84C296.153 43.6802 296.279 43.6761 296.286 43.2346V40.2189H295.379V40.1691H296.336V43.2346C296.336 43.6916 296.152 43.7377 295.84 43.7382H295.756V43.8584C295.98 43.8569 296.363 43.836 296.693 43.836C296.989 43.836 297.369 43.8569 297.594 43.8584V43.7382H297.511C297.236 43.7377 297.015 43.6701 297.015 43.2228V40.1691H297.972C298.353 40.1706 298.404 40.4951 298.416 40.7069L298.539 40.6614C298.539 40.5128 298.539 40.3639 298.55 40.2144C298.566 40.0672 298.587 39.9226 298.608 39.7768L298.522 39.7623C298.496 39.928 298.335 39.9369 298.193 39.9347H295.231C295.097 39.9349 294.951 39.9285 294.9 39.7697H294.806C294.805 39.9269 294.795 40.0797 294.773 40.2314C294.756 40.3878 294.73 40.538 294.709 40.6888H294.831C294.906 40.2917 294.954 40.1635 295.379 40.1691V40.2189C294.958 40.2273 294.967 40.2977 294.875 40.7183L294.87 40.7377H294.651L294.654 40.7082C294.678 40.5494 294.706 40.3895 294.723 40.2243C294.747 40.0663 294.757 39.9084 294.757 39.7453V39.7201H294.938L294.942 39.738C294.981 39.8815 295.086 39.8826 295.231 39.8851H298.193C298.351 39.8826 298.466 39.8804 298.476 39.7315L298.478 39.7046L298.504 39.7098L298.665 39.7352L298.661 39.7604C298.638 39.9132 298.616 40.0663 298.599 40.2189C298.588 40.3714 298.588 40.5244 298.588 40.6782V40.6955L298.571 40.7022L298.37 40.7758L298.369 40.7429C298.353 40.5287 298.331 40.2189 297.972 40.2189H297.064V43.2228C297.07 43.652 297.24 43.6822 297.511 43.6875H297.644V43.9075H297.62Z" fill="#1A1919"/>
<path fill-rule="evenodd" clip-rule="evenodd" d="M298.818 43.7122H298.898C299.102 43.7122 299.319 43.6841 299.319 43.3879V40.406C299.319 40.1093 299.102 40.081 298.898 40.081H298.818V39.91C299.164 39.91 299.757 39.9326 300.233 39.9326C300.712 39.9326 301.302 39.91 301.689 39.91C301.679 40.1547 301.684 40.5314 301.701 40.7813L301.53 40.8265C301.502 40.4564 301.434 40.1612 300.837 40.1612H300.048V41.6515H300.723C301.064 41.6515 301.138 41.4587 301.172 41.151H301.342C301.331 41.3734 301.325 41.5953 301.325 41.817C301.325 42.0337 301.331 42.2498 301.342 42.4657L301.172 42.4998C301.138 42.1587 301.121 41.9368 300.728 41.9368H300.048V43.2623C300.048 43.6329 300.376 43.6329 300.74 43.6329C301.423 43.6329 301.724 43.587 301.894 42.9389L302.053 42.9781C301.979 43.2804 301.911 43.5812 301.86 43.8832C301.496 43.8832 300.842 43.8612 300.331 43.8612C299.819 43.8612 299.143 43.8832 298.818 43.8832V43.7122Z" fill="#1A1919"/>
<path fill-rule="evenodd" clip-rule="evenodd" d="M301.859 43.9075C301.495 43.9075 300.841 43.8838 300.33 43.8838C299.818 43.8838 299.143 43.9075 298.818 43.9075H298.794V43.6875H298.898C299.104 43.6841 299.291 43.666 299.293 43.3878V40.4059C299.291 40.1277 299.104 40.1092 298.898 40.1055H298.794V39.8851H298.818C299.165 39.8851 299.757 39.9073 300.233 39.9073C300.711 39.9073 301.301 39.8851 301.688 39.8851H301.714L301.713 39.9114C301.709 39.9965 301.707 40.0978 301.707 40.2049C301.707 40.4016 301.713 40.6173 301.724 40.7793L301.725 40.7995L301.706 40.8053L301.506 40.8577L301.505 40.8284C301.471 40.4591 301.422 40.1904 300.837 40.1848H300.07L300.07 41.6265H300.722C301.05 41.623 301.109 41.4554 301.147 41.1484L301.149 41.1255H301.367L301.367 41.1516C301.356 41.3739 301.349 41.5952 301.349 41.8169C301.349 42.0322 301.356 42.2483 301.367 42.4646L301.367 42.4853L301.347 42.49L301.149 42.5294L301.147 42.5027C301.108 42.1552 301.105 41.9647 300.728 41.9606H300.07V43.2622C300.071 43.6082 300.369 43.6063 300.74 43.6082C301.424 43.6041 301.698 43.5705 301.87 42.9321L301.875 42.9091L301.899 42.913L302.082 42.9604L302.076 42.9838C302.003 43.285 301.935 43.586 301.883 43.8873L301.879 43.9075H301.859ZM301.837 43.8584C301.887 43.5705 301.952 43.2831 302.022 42.9965L301.91 42.9683C301.739 43.605 301.409 43.6619 300.738 43.6576C300.38 43.6576 300.022 43.6576 300.02 43.2622V41.9119H300.727C301.124 41.9078 301.164 42.1474 301.193 42.4713L301.315 42.446C301.304 42.2362 301.299 42.0255 301.299 41.8169C301.299 41.6032 301.304 41.3899 301.315 41.1751H301.193C301.16 41.4724 301.068 41.6799 300.721 41.6762H300.02V40.1355H300.836C301.427 40.1307 301.525 40.4371 301.55 40.7952L301.673 40.7618C301.663 40.6013 301.656 40.3949 301.656 40.2049C301.656 40.1075 301.659 40.015 301.662 39.9345C301.276 39.9362 300.699 39.9569 300.232 39.9569C299.765 39.9569 299.19 39.9362 298.842 39.9345V40.0555H298.897C299.099 40.056 299.341 40.0911 299.342 40.4059V43.3878C299.341 43.702 299.099 43.7366 298.897 43.7381H298.842V43.8584C299.173 43.8573 299.83 43.836 300.329 43.836C300.831 43.836 301.471 43.8573 301.837 43.8584Z" fill="#1A1919"/>
<path fill-rule="evenodd" clip-rule="evenodd" d="M302.821 40.5128C302.821 40.0979 302.594 40.0808 302.417 40.0808H302.314V39.91C302.497 39.91 302.849 39.9326 303.196 39.9326C303.537 39.9326 303.81 39.91 304.111 39.91C304.826 39.91 305.465 40.1032 305.465 40.9121C305.465 41.424 305.123 41.7366 304.674 41.9142L305.646 43.3704C305.806 43.6113 305.918 43.6788 306.198 43.7122V43.8832C306.01 43.8832 305.828 43.8612 305.641 43.8612C305.465 43.8612 305.282 43.8832 305.106 43.8832C304.668 43.3086 304.293 42.6941 303.924 42.0385H303.549V43.2573C303.549 43.6956 303.753 43.7122 304.014 43.7122H304.117V43.8832C303.792 43.8832 303.464 43.8612 303.139 43.8612C302.866 43.8612 302.599 43.8832 302.314 43.8832V43.7122H302.417C302.628 43.7122 302.821 43.6158 302.821 43.4056V40.5128ZM303.549 41.8331H303.827C304.396 41.8331 304.702 41.6175 304.702 40.9454C304.702 40.4393 304.378 40.1149 303.872 40.1149C303.701 40.1149 303.628 40.1323 303.549 40.1379V41.8331Z" fill="#1A1919"/>
<path fill-rule="evenodd" clip-rule="evenodd" d="M306.198 43.9075C306.007 43.9075 305.827 43.8847 305.64 43.8847C305.466 43.8847 305.285 43.9075 305.087 43.898C304.65 43.3249 304.277 42.7139 303.909 42.0641H303.573V43.2562C303.58 43.6847 303.751 43.6815 304.014 43.6875H304.142V43.9075H304.116C303.791 43.9075 303.461 43.8847 303.139 43.8847C302.867 43.8847 302.6 43.9075 302.315 43.9075H302.29V43.6875H302.417C302.622 43.686 302.795 43.5968 302.796 43.4055V40.5128C302.791 40.1092 302.594 40.1111 302.417 40.1055H302.29V39.8851H302.315C302.499 39.8851 302.85 39.9073 303.196 39.9073C303.536 39.9073 303.808 39.8851 304.112 39.8851C304.828 39.8866 305.488 40.0842 305.49 40.9111C305.49 41.4248 305.15 41.7458 304.712 41.9249L305.667 43.3568C305.826 43.5929 305.925 43.652 306.201 43.6875L306.222 43.6908V43.9075H306.198ZM303.549 42.0138H303.937L303.944 42.0266C304.314 42.6805 304.688 43.2952 305.106 43.8588C305.279 43.8588 305.462 43.836 305.639 43.836C305.821 43.836 305.996 43.8558 306.173 43.8584V43.7334C305.906 43.7009 305.781 43.6203 305.626 43.3844L304.636 41.9027L304.664 41.8912C305.109 41.7156 305.439 41.4116 305.44 40.9111C305.439 40.1215 304.826 39.9383 304.111 39.9345C303.812 39.9345 303.539 39.9575 303.196 39.9575C302.862 39.9575 302.525 39.9362 302.339 39.9345V40.0555H302.417C302.594 40.056 302.845 40.0853 302.845 40.5127V43.4055C302.845 43.6339 302.631 43.7377 302.417 43.7381H302.339V43.8584C302.612 43.8573 302.872 43.836 303.139 43.836C303.456 43.836 303.777 43.8573 304.092 43.8584V43.7381H304.014C303.755 43.7377 303.523 43.7056 303.523 43.2562V42.0138H303.549ZM303.55 41.8577H303.524V40.1148L303.546 40.1131C303.624 40.1069 303.701 40.0911 303.873 40.0911C304.39 40.0911 304.728 40.4279 304.728 40.9469C304.727 41.6265 304.401 41.8575 303.828 41.8577H303.55ZM303.827 41.8092C304.389 41.8036 304.673 41.6081 304.679 40.9469C304.675 40.4496 304.367 40.1411 303.872 40.1389C303.718 40.1389 303.646 40.1532 303.573 40.1603V41.8092H303.827Z" fill="#1A1919"/>
<path fill-rule="evenodd" clip-rule="evenodd" d="M310.057 42.7613L310.067 42.7501V40.6162C310.067 40.1491 309.744 40.0808 309.573 40.0808H309.449V39.91C309.716 39.91 309.977 39.9326 310.244 39.9326C310.478 39.9326 310.71 39.91 310.944 39.91V40.0808H310.859C310.62 40.0808 310.353 40.1263 310.353 40.8037V43.3935C310.353 43.593 310.358 43.7921 310.386 43.9688H310.171L307.243 40.7009V43.0466C307.243 43.5422 307.339 43.7122 307.777 43.7122H307.874V43.8832C307.63 43.8832 307.385 43.861 307.141 43.861C306.884 43.861 306.623 43.8832 306.367 43.8832V43.7122H306.446C306.839 43.7122 306.959 43.4446 306.959 42.9906V40.5923C306.959 40.2739 306.697 40.0808 306.441 40.0808H306.367V39.91C306.582 39.91 306.806 39.9326 307.021 39.9326C307.19 39.9326 307.356 39.91 307.527 39.91L310.057 42.7613Z" fill="#1A1919"/>
<path fill-rule="evenodd" clip-rule="evenodd" d="M310.385 43.9927L310.152 43.9847L307.266 40.7656V43.0464C307.273 43.5422 307.348 43.6822 307.776 43.6876H307.897V43.9076H307.872C307.626 43.9076 307.382 43.8839 307.139 43.8839C306.885 43.8839 306.622 43.9076 306.366 43.9076H306.341V43.6876H306.445C306.821 43.6861 306.929 43.4437 306.932 42.9891V40.5923C306.932 40.289 306.684 40.1056 306.44 40.1056H306.341V39.8852H306.366C306.583 39.8852 306.806 39.9074 307.02 39.9074C307.187 39.9074 307.352 39.8852 307.543 39.8925L310.042 42.7098V40.6162C310.041 40.1642 309.738 40.1082 309.572 40.1056H309.423V39.8852H309.447C309.716 39.8852 309.978 39.9074 310.244 39.9074C310.475 39.9074 310.708 39.8852 310.942 39.8852H310.968V40.1056H310.858C310.623 40.1112 310.382 40.1323 310.376 40.8037V43.3935C310.376 43.5928 310.381 43.7901 310.41 43.9647L310.413 43.9927H310.385ZM310.17 43.9431H310.356C310.331 43.7729 310.326 43.5829 310.326 43.3935V40.8037C310.327 40.1205 310.614 40.0571 310.858 40.0556H310.918V39.9345C310.694 39.9362 310.469 39.9569 310.244 39.9569C309.982 39.9569 309.729 39.9362 309.472 39.9345V40.0556H309.572C309.747 40.0571 310.092 40.1338 310.092 40.6162L310.084 42.768L310.073 42.779L310.055 42.7977L307.526 39.9345C307.357 39.9345 307.192 39.9569 307.02 39.9569C306.809 39.9569 306.597 39.9362 306.39 39.9345V40.0556H306.44C306.708 40.0571 306.981 40.259 306.981 40.5923V42.9891C306.981 43.4458 306.853 43.7367 306.445 43.7382L306.39 43.7378V43.8587C306.636 43.8569 306.889 43.836 307.139 43.836C307.377 43.836 307.613 43.8569 307.848 43.8587V43.7382H307.776C307.329 43.7378 307.217 43.5421 307.216 43.0464V40.638L310.17 43.9431ZM310.055 42.7614L310.073 42.7449L310.055 42.7614ZM310.042 42.7502V42.7487L310.038 42.7443L310.042 42.7502Z" fill="#1A1919"/>
<path fill-rule="evenodd" clip-rule="evenodd" d="M311.858 43.0694C311.801 43.2623 311.733 43.4118 311.733 43.5128C311.733 43.6841 311.972 43.7124 312.159 43.7124H312.223V43.8832C311.994 43.8709 311.762 43.8612 311.533 43.8612C311.329 43.8612 311.125 43.8709 310.92 43.8832V43.7124H310.955C311.176 43.7124 311.364 43.5811 311.448 43.342L312.358 40.7302C312.432 40.5191 312.535 40.2347 312.569 40.0235C312.75 39.9612 312.979 39.8481 313.086 39.779C313.104 39.7732 313.114 39.7673 313.132 39.7673C313.149 39.7673 313.159 39.7673 313.172 39.7852C313.189 39.8302 313.205 39.8815 313.223 39.927L314.269 42.9044C314.338 43.103 314.405 43.3136 314.478 43.4853C314.547 43.6449 314.667 43.7124 314.855 43.7124H314.889V43.8832C314.633 43.8709 314.376 43.8612 314.105 43.8612C313.826 43.8612 313.541 43.8709 313.251 43.8832V43.7124H313.314C313.444 43.7124 313.667 43.6897 313.667 43.5473C313.667 43.4739 313.615 43.32 313.552 43.1371L313.33 42.4771H312.04L311.858 43.0694ZM312.689 40.5478H312.677L312.148 42.1587H313.211L312.689 40.5478Z" fill="#1A1919"/>
<path fill-rule="evenodd" clip-rule="evenodd" d="M314.886 43.9076C314.631 43.8966 314.375 43.8839 314.104 43.8839C313.825 43.8839 313.542 43.8966 313.251 43.9076L313.225 43.9089V43.6866H313.313C313.444 43.6866 313.64 43.657 313.64 43.5474C313.642 43.4825 313.591 43.3265 313.528 43.1455L313.311 42.5015H312.057L311.881 43.0768C311.823 43.2703 311.754 43.4207 311.755 43.5133C311.757 43.6523 311.969 43.6866 312.158 43.6866H312.246V43.9089L312.22 43.9076C311.992 43.8966 311.761 43.8839 311.533 43.8839C311.33 43.8839 311.125 43.8966 310.921 43.9076L310.895 43.9089V43.6866H310.953C311.165 43.6861 311.341 43.5652 311.423 43.3341L312.334 40.7214C312.407 40.5107 312.511 40.2276 312.56 40.0001C312.738 39.9395 312.967 39.8247 313.076 39.756C313.092 39.7504 313.108 39.743 313.13 39.743C313.144 39.7422 313.175 39.7458 313.194 39.7756C313.21 39.8223 313.228 39.8734 313.245 39.9193L314.292 42.8963C314.359 43.0956 314.427 43.3058 314.501 43.4745C314.567 43.6262 314.671 43.6861 314.854 43.6866H314.911V43.9089L314.886 43.9076ZM313.274 43.857C313.555 43.8471 313.831 43.8361 314.103 43.8361C314.367 43.8361 314.615 43.8471 314.862 43.857V43.7378H314.853C314.658 43.7391 314.524 43.6624 314.454 43.4946C314.38 43.3226 314.311 43.1113 314.244 42.912L313.197 39.9348C313.18 39.8893 313.164 39.8385 313.149 39.798C313.144 39.7924 313.145 39.7924 313.14 39.7924H313.13C313.118 39.7924 313.111 39.7958 313.097 39.7995C312.987 39.8706 312.76 39.9828 312.59 40.0272C312.556 40.2429 312.453 40.5273 312.38 40.7382L311.47 43.3502C311.383 43.5976 311.183 43.7383 310.953 43.7378H310.943V43.857C311.138 43.8471 311.335 43.8361 311.532 43.8361C311.752 43.8361 311.976 43.8471 312.194 43.857V43.7378H312.157C311.972 43.7352 311.713 43.715 311.707 43.5133C311.707 43.4004 311.777 43.2548 311.832 43.0624L311.857 43.0695L311.832 43.0617L312.02 42.4535H313.345L313.573 43.1294C313.637 43.3125 313.689 43.4642 313.689 43.5474C313.68 43.7217 313.441 43.7346 313.312 43.7378H313.274V43.857ZM312.112 42.1833L312.657 40.5226H312.687V40.5478L312.681 40.5495L312.687 40.5478V40.5226H312.704L313.245 42.1833H312.112ZM312.182 42.1335H313.177L312.682 40.6083L312.182 42.1335ZM312.663 40.5551L312.676 40.551L312.663 40.5551Z" fill="#1A1919"/>
<path fill-rule="evenodd" clip-rule="evenodd" d="M315.14 40.1945C314.713 40.1945 314.696 40.2975 314.61 40.7125H314.439C314.462 40.5531 314.491 40.3938 314.509 40.2288C314.531 40.0687 314.542 39.9099 314.542 39.7453H314.679C314.724 39.9162 314.866 39.9099 315.02 39.9099H317.954C318.106 39.9099 318.249 39.9043 318.26 39.7335L318.396 39.7567C318.375 39.9099 318.352 40.0638 318.334 40.2178C318.322 40.3714 318.322 40.5246 318.322 40.6782L318.152 40.7416C318.142 40.5313 318.113 40.1945 317.731 40.1945H316.799V43.2228C316.799 43.6619 316.998 43.7121 317.271 43.7121H317.38V43.8832C317.157 43.8832 316.76 43.8612 316.452 43.8612C316.112 43.8612 315.713 43.8832 315.491 43.8832V43.7121H315.6C315.913 43.7121 316.072 43.6841 316.072 43.2346V40.1945H315.14Z" fill="#1A1919"/>
<path fill-rule="evenodd" clip-rule="evenodd" d="M317.379 43.9075C317.155 43.9075 316.757 43.8849 316.451 43.8849C316.112 43.8849 315.714 43.9075 315.491 43.9075H315.466V43.6875H315.599C315.912 43.6802 316.038 43.6761 316.046 43.2346L316.045 40.2189H315.139V40.1691H316.095V43.2346C316.095 43.6916 315.911 43.7367 315.599 43.7377H315.515V43.8588C315.74 43.8569 316.122 43.836 316.451 43.836C316.749 43.836 317.129 43.8569 317.353 43.8588V43.7377H317.27C316.996 43.7367 316.775 43.6707 316.774 43.2228V40.1691H317.731C318.113 40.1706 318.162 40.4951 318.173 40.7069L318.297 40.6614C318.297 40.5128 318.298 40.3639 318.309 40.215C318.325 40.0683 318.346 39.9226 318.367 39.7774L318.281 39.7623C318.255 39.928 318.094 39.9373 317.953 39.9347H314.99C314.856 39.9362 314.711 39.9285 314.659 39.7692H314.566C314.565 39.9267 314.554 40.0797 314.531 40.2314C314.516 40.3885 314.488 40.5391 314.467 40.6888H314.589C314.664 40.2917 314.713 40.1629 315.139 40.1691V40.2189C314.717 40.2262 314.727 40.2977 314.634 40.7183L314.63 40.7377H314.41L314.414 40.7095C314.437 40.5494 314.465 40.3895 314.482 40.2256C314.505 40.0663 314.516 39.9084 314.516 39.7453V39.7201H314.696L314.701 39.738C314.741 39.8815 314.844 39.8826 314.99 39.8851H317.953C318.11 39.8826 318.225 39.8804 318.235 39.732L318.236 39.7046L318.262 39.7098L318.424 39.7352L318.42 39.7604C318.397 39.9132 318.375 40.0663 318.358 40.2189C318.346 40.3714 318.346 40.5246 318.346 40.6782V40.6955L318.33 40.7022L318.128 40.7758L318.128 40.7429C318.113 40.5287 318.09 40.2189 317.731 40.2189H316.823V43.2228C316.829 43.652 316.999 43.6822 317.27 43.6875H317.403V43.9075H317.379Z" fill="#1A1919"/>
<path fill-rule="evenodd" clip-rule="evenodd" d="M318.605 43.7122H318.685C318.89 43.7122 319.105 43.6841 319.105 43.3879V40.406C319.105 40.1093 318.89 40.081 318.685 40.081H318.605V39.91C318.827 39.91 319.168 39.9326 319.446 39.9326C319.731 39.9326 320.072 39.91 320.34 39.91V40.081H320.26C320.055 40.081 319.839 40.1093 319.839 40.406V43.3879C319.839 43.6841 320.055 43.7122 320.26 43.7122H320.34V43.8832C320.067 43.8832 319.725 43.8612 319.442 43.8612C319.162 43.8612 318.827 43.8832 318.605 43.8832V43.7122Z" fill="#1A1919"/>
<path fill-rule="evenodd" clip-rule="evenodd" d="M320.339 43.9075C320.064 43.9075 319.724 43.8838 319.44 43.8838C319.162 43.8838 318.826 43.9075 318.604 43.9075H318.58V43.6875H318.684C318.889 43.6841 319.078 43.666 319.079 43.3878V40.4059C319.078 40.1277 318.889 40.1092 318.684 40.1055H318.58V39.8851H318.604C318.826 39.8851 319.168 39.9073 319.445 39.9073C319.728 39.9073 320.069 39.8851 320.339 39.8851H320.363V40.1055H320.259C320.051 40.1092 319.864 40.1277 319.862 40.4059V43.3878C319.864 43.666 320.051 43.6841 320.259 43.6875H320.363V43.9075H320.339ZM320.313 43.8584V43.7377H320.259C320.055 43.7377 319.813 43.702 319.813 43.3878V40.4059C319.813 40.0911 320.055 40.056 320.259 40.0556H320.313V39.9345C320.05 39.9362 319.721 39.9569 319.444 39.9569C319.175 39.9569 318.849 39.9362 318.629 39.9345V40.0556H318.684C318.886 40.056 319.128 40.0911 319.129 40.4059V43.3878C319.128 43.702 318.886 43.7377 318.684 43.7377H318.629V43.8584C318.848 43.8558 319.169 43.836 319.44 43.836C319.716 43.836 320.044 43.8569 320.313 43.8584Z" fill="#1A1919"/>
<path fill-rule="evenodd" clip-rule="evenodd" d="M322.606 39.8246C323.818 39.8246 324.784 40.5767 324.784 41.7891C324.784 43.0985 323.846 43.9687 322.635 43.9687C321.429 43.9687 320.509 43.1489 320.509 41.9249C320.509 40.7416 321.424 39.8246 322.606 39.8246ZM322.691 43.7181C323.795 43.7181 323.987 42.744 323.987 41.9141C323.987 41.0822 323.539 40.0752 322.595 40.0752C321.6 40.0752 321.304 40.9633 321.304 41.7254C321.304 42.744 321.771 43.7181 322.691 43.7181Z" fill="#1A1919"/>
<path fill-rule="evenodd" clip-rule="evenodd" d="M320.485 41.9249C320.488 40.7278 321.413 39.8017 322.608 39.7998V39.8496C321.439 39.8496 320.535 40.7541 320.534 41.9249C320.536 43.1351 321.443 43.9426 322.637 43.943C323.836 43.9426 324.76 43.0849 324.762 41.7883C324.761 40.591 323.81 39.8507 322.608 39.8496V39.7998C323.828 39.8011 324.808 40.5606 324.81 41.7883C324.809 43.1112 323.859 43.9905 322.637 43.9926C321.421 43.9905 320.488 43.1624 320.485 41.9249ZM321.281 41.7254C321.283 40.9594 321.582 40.0497 322.597 40.0497C323.562 40.0519 324.012 41.0777 324.014 41.9141C324.012 42.744 323.817 43.7414 322.694 43.7414V43.6931C323.775 43.6923 323.963 42.744 323.964 41.9141C323.964 41.0895 323.521 40.1015 322.597 40.0999C321.621 40.101 321.333 40.9672 321.331 41.7254C321.331 42.7393 321.793 43.6916 322.694 43.6931V43.7414C321.75 43.7405 321.283 42.7501 321.281 41.7254Z" fill="#1A1919"/>
<path fill-rule="evenodd" clip-rule="evenodd" d="M328.617 42.7613L328.628 42.7501V40.6162C328.628 40.1491 328.303 40.0808 328.133 40.0808H328.009V39.91C328.276 39.91 328.538 39.9326 328.804 39.9326C329.038 39.9326 329.271 39.91 329.504 39.91V40.0808H329.419C329.18 40.0808 328.912 40.1263 328.912 40.8037V43.3935C328.912 43.593 328.918 43.7921 328.947 43.9688H328.731L325.802 40.7009V43.0466C325.802 43.5422 325.899 43.7122 326.336 43.7122H326.434V43.8832C326.189 43.8832 325.945 43.861 325.7 43.861C325.444 43.861 325.183 43.8832 324.927 43.8832V43.7122H325.007C325.4 43.7122 325.518 43.4446 325.518 42.9906V40.5923C325.518 40.2739 325.258 40.0808 325 40.0808H324.927V39.91C325.143 39.91 325.364 39.9326 325.581 39.9326C325.751 39.9326 325.915 39.91 326.086 39.91L328.617 42.7613Z" fill="#1A1919"/>
<path fill-rule="evenodd" clip-rule="evenodd" d="M328.948 43.9927L328.712 43.9847L325.827 40.7656V43.0466C325.834 43.5422 325.909 43.6816 326.336 43.6865H326.458V43.9076H326.434C326.188 43.9076 325.944 43.8847 325.701 43.8847C325.446 43.8847 325.184 43.9076 324.927 43.9076H324.903V43.6865H325.007C325.381 43.6854 325.49 43.4437 325.494 42.9904V40.5923C325.494 40.289 325.245 40.1056 325.001 40.1056H324.903V39.8852H324.927C325.145 39.8852 325.366 39.9074 325.581 39.9074C325.75 39.9074 325.913 39.8852 326.106 39.894L328.604 42.7098V40.6162C328.602 40.1642 328.299 40.1093 328.133 40.1056H327.983V39.8852H328.01C328.277 39.8852 328.539 39.9074 328.804 39.9074C329.036 39.9074 329.268 39.8852 329.505 39.8852H329.529V40.1056H329.419C329.185 40.1116 328.943 40.1332 328.938 40.8037V43.3935C328.938 43.5928 328.942 43.7914 328.97 43.9647L328.975 43.9927H328.948ZM328.731 43.9431H328.917C328.893 43.7718 328.888 43.5829 328.888 43.3935V40.8037C328.888 40.1194 329.175 40.0571 329.419 40.0556H329.48V39.9345C329.254 39.9362 329.031 39.9569 328.804 39.9569C328.545 39.9569 328.291 39.9362 328.033 39.9345V40.0556H328.133C328.309 40.0571 328.652 40.1349 328.652 40.6162L328.646 42.768L328.635 42.779L328.617 42.7977L326.087 39.9345C325.918 39.9345 325.753 39.9569 325.581 39.9569C325.371 39.9569 325.158 39.9362 324.951 39.9345V40.0556H325.001C325.268 40.0571 325.543 40.259 325.543 40.5923V42.9904C325.543 43.4458 325.416 43.7367 325.007 43.7382L324.951 43.7378V43.8587C325.198 43.8569 325.451 43.836 325.701 43.836C325.938 43.836 326.173 43.8569 326.409 43.8587V43.7382H326.336C325.89 43.7378 325.778 43.5421 325.778 43.0466V40.6371L328.731 43.9431ZM328.616 42.7614L328.634 42.745L328.616 42.7614ZM328.604 42.7502V42.7487L328.6 42.7443L328.604 42.7502Z" fill="#1A1919"/>
<path fill-rule="evenodd" clip-rule="evenodd" d="M330.415 43.0694C330.359 43.2622 330.291 43.4117 330.291 43.5128C330.291 43.6841 330.53 43.7123 330.717 43.7123H330.78V43.8832C330.552 43.8709 330.319 43.8612 330.091 43.8612C329.887 43.8612 329.682 43.8709 329.479 43.8832V43.7123H329.511C329.734 43.7123 329.922 43.5811 330.005 43.3419L330.917 40.7302C330.99 40.519 331.093 40.2346 331.126 40.0235C331.308 39.9612 331.535 39.8481 331.645 39.7789C331.661 39.7731 331.672 39.7673 331.69 39.7673C331.706 39.7673 331.717 39.7673 331.729 39.7852C331.746 39.8302 331.763 39.8815 331.78 39.9269L332.826 42.9043C332.894 43.103 332.963 43.3135 333.037 43.4852C333.105 43.6449 333.224 43.7123 333.412 43.7123H333.447V43.8832C333.191 43.8709 332.934 43.8612 332.661 43.8612C332.383 43.8612 332.099 43.8709 331.808 43.8832V43.7123H331.871C332.001 43.7123 332.224 43.6897 332.224 43.5473C332.224 43.4738 332.173 43.32 332.11 43.137L331.888 42.4771H330.598L330.415 43.0694ZM331.248 40.5477H331.236L330.706 42.1586H331.771L331.248 40.5477Z" fill="#1A1919"/>
<path fill-rule="evenodd" clip-rule="evenodd" d="M333.446 43.9075C333.189 43.8974 332.934 43.8847 332.663 43.8847C332.385 43.8847 332.101 43.8974 331.811 43.9075L331.786 43.9088V43.6876H331.872C332.004 43.6876 332.2 43.657 332.2 43.5473C332.202 43.4824 332.15 43.3271 332.087 43.1455L331.871 42.5015H330.616L330.44 43.0767C330.383 43.2717 330.316 43.4206 330.317 43.5128C330.317 43.6522 330.53 43.6876 330.718 43.6876H330.805V43.9088L330.779 43.9075C330.552 43.8974 330.319 43.8847 330.093 43.8847C329.889 43.8847 329.685 43.8974 329.48 43.9075L329.455 43.9088V43.6876H329.512C329.724 43.6865 329.901 43.565 329.985 43.334L330.894 40.7213C330.967 40.5106 331.07 40.2275 331.119 40.0009C331.298 39.9388 331.526 39.8246 331.637 39.7559C331.652 39.7503 331.668 39.7434 331.691 39.7434C331.705 39.7421 331.735 39.7458 331.753 39.7768C331.77 39.8216 331.787 39.8733 331.805 39.9192L332.851 42.8962C332.919 43.0955 332.987 43.3058 333.061 43.4755C333.128 43.6261 333.231 43.686 333.412 43.6876H333.471V43.9088L333.446 43.9075ZM331.833 43.8574C332.115 43.8471 332.391 43.8361 332.662 43.8361C332.926 43.8361 333.174 43.8471 333.422 43.857L333.421 43.7379H333.412C333.219 43.7383 333.085 43.6624 333.014 43.4946C332.939 43.3227 332.872 43.1113 332.803 42.9127L331.757 39.9348C331.74 39.8894 331.722 39.8385 331.709 39.7991C331.704 39.7924 331.705 39.7924 331.701 39.7924H331.69C331.678 39.7924 331.672 39.7963 331.658 39.8002C331.547 39.8697 331.319 39.9839 331.151 40.0272C331.116 40.2429 331.013 40.5269 330.94 40.7383L330.029 43.3502C329.943 43.5976 329.744 43.7383 329.511 43.7379H329.503V43.857C329.699 43.8471 329.894 43.8361 330.092 43.8361C330.312 43.8361 330.537 43.8471 330.756 43.857V43.7379H330.717C330.532 43.7353 330.273 43.7157 330.266 43.5129C330.267 43.4004 330.337 43.2552 330.393 43.0624L330.416 43.0695L330.393 43.0617L330.58 42.4535H331.905L332.133 43.1294C332.196 43.3125 332.248 43.4642 332.248 43.5474C332.24 43.7217 332.001 43.7346 331.872 43.7379H331.833V43.8574ZM330.672 42.183L331.218 40.5225H331.247V40.5477L331.241 40.5494L331.247 40.5477V40.5225H331.265L331.802 42.183H330.672ZM330.74 42.1335H331.735L331.24 40.6091L330.74 42.1335ZM331.223 40.5551L331.235 40.551L331.223 40.5551Z" fill="#1A1919"/>
<path fill-rule="evenodd" clip-rule="evenodd" d="M334.881 43.325C334.881 43.5538 335.039 43.6212 335.221 43.6449C335.454 43.6619 335.71 43.6619 335.972 43.6329C336.211 43.6042 336.415 43.4685 336.517 43.325C336.608 43.2 336.659 43.0406 336.694 42.9156H336.858C336.796 43.2401 336.716 43.5592 336.648 43.8832C336.149 43.8832 335.647 43.8612 335.147 43.8612C334.647 43.8612 334.147 43.8832 333.646 43.8832V43.7122H333.725C333.93 43.7122 334.153 43.6841 334.153 43.3312V40.406C334.153 40.1093 333.93 40.0808 333.725 40.0808H333.646V39.91C333.947 39.91 334.243 39.9326 334.544 39.9326C334.835 39.9326 335.118 39.91 335.409 39.91V40.0808H335.266C335.05 40.0808 334.881 40.0869 334.881 40.3885V43.325Z" fill="#1A1919"/>
<path fill-rule="evenodd" clip-rule="evenodd" d="M336.648 43.9076C336.146 43.9076 335.645 43.8847 335.147 43.8847C334.647 43.8847 334.146 43.9076 333.645 43.9076H333.621V43.6876H333.725C333.93 43.6826 334.126 43.6682 334.128 43.3312V40.4049C334.126 40.1278 333.931 40.1093 333.725 40.1056H333.621V39.8852H333.645C333.948 39.8852 334.244 39.9074 334.543 39.9074C334.833 39.9074 335.116 39.8852 335.409 39.8852H335.432V40.1056H335.266C335.045 40.1112 334.908 40.1013 334.903 40.3885V43.325C334.905 43.5378 335.044 43.5947 335.222 43.6201C335.322 43.627 335.428 43.6307 335.537 43.6307C335.676 43.6307 335.821 43.6242 335.968 43.6087C336.199 43.5811 336.398 43.4471 336.497 43.3114C336.585 43.1897 336.634 43.0337 336.669 42.9098L336.673 42.891H336.888L336.883 42.921C336.818 43.2463 336.74 43.5639 336.671 43.8884L336.667 43.9076H336.648ZM336.626 43.8584C336.692 43.5493 336.766 43.247 336.828 42.9399H336.711C336.676 43.0638 336.625 43.2166 336.536 43.3405C336.429 43.4879 336.219 43.627 335.972 43.6576C335.824 43.6727 335.676 43.6805 335.537 43.6805C335.426 43.6805 335.32 43.6755 335.217 43.6682C335.032 43.6479 334.853 43.5684 334.853 43.325V40.3885C334.853 40.072 335.053 40.0556 335.265 40.0556H335.382V39.9345C335.102 39.9362 334.826 39.9576 334.543 39.9576C334.249 39.9576 333.961 39.9362 333.67 39.9345V40.0556H333.724C333.927 40.0556 334.175 40.0912 334.175 40.4049V43.3312C334.175 43.6997 333.928 43.7378 333.724 43.7378H333.67V43.8584C334.161 43.8574 334.653 43.836 335.146 43.836C335.641 43.836 336.134 43.8574 336.626 43.8584Z" fill="#1A1919"/>
<path fill-rule="evenodd" clip-rule="evenodd" d="M301.279 19.8148C301.279 14.4907 305.59 10.1746 310.908 10.1746C316.226 10.1746 320.537 14.4907 320.537 19.8148C320.537 25.139 316.226 29.4553 310.908 29.4553C305.59 29.4553 301.279 25.139 301.279 19.8148Z" fill="#FFFFFE"/>
<path fill-rule="evenodd" clip-rule="evenodd" d="M316.73 19.625C316.726 17.1563 315.185 15.0509 313.013 14.217V25.0326C315.185 24.1977 316.726 22.0942 316.73 19.625ZM308.869 25.0304V14.2181C306.7 15.0545 305.161 17.157 305.155 19.625C305.161 22.0925 306.7 24.1947 308.869 25.0304ZM310.942 10.4834C305.899 10.4853 301.814 14.5765 301.813 19.6251C301.814 24.673 305.899 28.7635 310.942 28.7643C315.984 28.7635 320.071 24.673 320.072 19.6251C320.071 14.5765 315.984 10.4853 310.942 10.4834ZM310.92 29.627C305.402 29.6533 300.86 25.1776 300.86 19.7293C300.86 13.7749 305.402 9.65645 310.92 9.65753H313.506C318.959 9.65645 323.935 13.773 323.935 19.7293C323.935 25.1756 318.959 29.627 313.506 29.627H310.92Z" fill="#0069AA"/>
<path fill-rule="evenodd" clip-rule="evenodd" d="M288 43.7122H288.08C288.284 43.7122 288.5 43.6841 288.5 43.3879V40.406C288.5 40.1093 288.284 40.081 288.08 40.081H288V39.91C288.222 39.91 288.563 39.9326 288.842 39.9326C289.126 39.9326 289.467 39.91 289.734 39.91V40.081H289.654C289.45 40.081 289.234 40.1093 289.234 40.406V43.3879C289.234 43.6841 289.45 43.7122 289.654 43.7122H289.734V43.8832C289.461 43.8832 289.119 43.8612 288.836 43.8612C288.557 43.8612 288.222 43.8832 288 43.8832V43.7122Z" fill="#1A1919"/>
<path fill-rule="evenodd" clip-rule="evenodd" d="M289.734 43.9076C289.459 43.9076 289.119 43.8847 288.836 43.8847C288.558 43.8847 288.223 43.9076 288 43.9076H287.976V43.6876H288.08C288.286 43.6826 288.474 43.666 288.475 43.3879V40.406C288.474 40.1274 288.286 40.1093 288.08 40.1056H287.976V39.8852H288C288.223 39.8852 288.564 39.9074 288.842 39.9074C289.125 39.9074 289.466 39.8852 289.734 39.8852H289.76V40.1056H289.655C289.449 40.1093 289.26 40.1274 289.259 40.406V43.3879C289.26 43.666 289.449 43.6826 289.655 43.6876H289.76V43.9076H289.734ZM289.71 43.8589L289.71 43.7378H289.655C289.452 43.7378 289.21 43.702 289.209 43.3879V40.4059C289.21 40.0912 289.452 40.056 289.655 40.056H289.71V39.9345C289.448 39.9347 289.118 39.9576 288.842 39.9576C288.572 39.9576 288.245 39.9362 288.025 39.9345V40.056H288.08C288.282 40.056 288.525 40.0912 288.525 40.4059V43.3879C288.525 43.702 288.282 43.7378 288.08 43.7378H288.025V43.8589C288.245 43.8569 288.567 43.836 288.836 43.836C289.113 43.836 289.442 43.8574 289.71 43.8589Z" fill="#1A1919"/>
<path fill-rule="evenodd" clip-rule="evenodd" d="M336.788 39.7486C337.131 39.7486 337.387 40.0123 337.387 40.3493C337.387 40.6861 337.131 40.947 336.788 40.947C336.446 40.947 336.189 40.6861 336.189 40.3493C336.189 40.0123 336.446 39.7486 336.788 39.7486ZM336.788 40.8355C337.056 40.8355 337.261 40.6069 337.261 40.3493C337.261 40.0911 337.058 39.8608 336.788 39.8608C336.518 39.8608 336.313 40.0911 336.313 40.3493C336.313 40.6069 336.518 40.8355 336.788 40.8355ZM336.49 40.6653V40.6362C336.563 40.6257 336.577 40.6276 336.577 40.5828V40.1385C336.577 40.0761 336.57 40.0545 336.492 40.058V40.0274H336.798C336.904 40.0274 337.001 40.0778 337.001 40.1868C337.001 40.2758 336.942 40.3419 336.859 40.3676L336.958 40.505C337.003 40.5671 337.056 40.6257 337.089 40.6464V40.6653H336.973C336.917 40.6653 336.867 40.5477 336.758 40.3898H336.691V40.5884C336.691 40.6276 336.705 40.6257 336.779 40.6362V40.6653H336.49ZM336.691 40.3499H336.762C336.839 40.3499 336.875 40.2914 336.875 40.1966C336.875 40.1012 336.82 40.0672 336.758 40.0672H336.691V40.3499Z" fill="#1A1919"/>
<rect x="348.317" y="0.788639" width="74.7229" height="51.3157" rx="3.15096" fill="#006FCF" stroke="#F3F3F3" stroke-width="0.900276"/>
<path fill-rule="evenodd" clip-rule="evenodd" d="M363.337 38.0564V27.3071H375.494L376.798 28.899L378.146 27.3071H422.271V37.3151C422.271 37.3151 421.117 38.0457 419.783 38.0564H395.349L393.879 36.3619V38.0564H389.06V35.1639C389.06 35.1639 388.402 35.5677 386.979 35.5677H385.339V38.0564H378.043L376.74 36.4304L375.418 38.0564H363.337ZM349.172 19.2054L351.907 13.2217H356.637L358.189 16.5735V13.2217H364.069L364.993 15.6443L365.889 13.2217H392.285V14.4396C392.285 14.4396 393.672 13.2217 395.952 13.2217L404.517 13.2498L406.042 16.5577V13.2217H410.963L412.317 15.1219V13.2217H417.283V23.9711H412.317L411.019 22.0648V23.9711H403.79L403.063 22.2766H401.119L400.404 23.9711H395.501C393.539 23.9711 392.285 22.778 392.285 22.778V23.9711H384.892L383.425 22.2766V23.9711H355.936L355.21 22.2766H353.273L352.551 23.9711H349.172V19.2054ZM349.186 22.5956L352.876 14.5469H355.672L359.358 22.5956H356.903L356.226 20.9839H352.269L351.588 22.5956H349.186ZM355.447 19.2365L354.241 16.4201L353.031 19.2365H355.447ZM359.612 22.5943V14.5455L363.025 14.5574L365.01 19.7468L366.947 14.5455H370.333V22.5943H368.189V16.6636L365.916 22.5943H364.035L361.756 16.6636V22.5943H359.612ZM371.8 22.5943V14.5455H378.797V16.3459H373.967V17.7227H378.685V19.4172H373.967V20.8469H378.797V22.5943H371.8ZM380.039 22.5957V14.5469H384.811C386.392 14.5469 387.809 15.4644 387.809 17.1581C387.809 18.606 386.614 19.5386 385.456 19.6303L388.278 22.5957H385.657L383.086 19.7362H382.183V22.5957H380.039ZM384.635 16.3473H382.183V18.0418H384.666C385.096 18.0418 385.65 17.7292 385.65 17.1945C385.65 16.7789 385.223 16.3473 384.635 16.3473ZM390.874 22.5943H388.685V14.5455H390.874V22.5943ZM396.065 22.5943H395.593C393.306 22.5943 391.918 20.9038 391.918 18.603C391.918 16.2454 393.29 14.5455 396.178 14.5455H398.548V16.4518H396.091C394.919 16.4518 394.09 17.3103 394.09 18.6229C394.09 20.1816 395.038 20.8363 396.404 20.8363H396.968L396.065 22.5943ZM397.042 22.5957L400.731 14.5469H403.528L407.214 22.5957H404.759L404.082 20.984H400.125L399.444 22.5957H397.042ZM403.303 19.2365L402.097 16.4201L400.887 19.2365H403.303ZM407.464 22.5943V14.5455H410.19L413.671 19.6025V14.5455H415.815V22.5943H413.177L409.608 17.405V22.5943H407.464ZM364.803 36.6797V28.6309H371.8V30.4313H366.97V31.808H371.687V33.5025H366.97V34.9322H371.8V36.6797H364.803ZM399.09 36.6797V28.6309H406.088V30.4313H401.257V31.808H405.952V33.5025H401.257V34.9322H406.088V36.6797H399.09ZM372.072 36.6797L375.479 32.7049L371.991 28.6309H374.693L376.77 31.1494L378.854 28.6309H381.45L378.008 32.6553L381.421 36.6797H378.72L376.703 34.2008L374.735 36.6797H372.072ZM381.677 36.6811V28.6323H386.413C388.357 28.6323 389.492 29.8077 389.492 31.3395C389.492 33.1885 388.045 34.1393 386.135 34.1393H383.877V36.6811H381.677ZM386.254 30.4525H383.877V32.3059H386.247C386.873 32.3059 387.312 31.9164 387.312 31.3792C387.312 30.8074 386.871 30.4525 386.254 30.4525ZM390.422 36.6797V28.6309H395.194C396.775 28.6309 398.191 29.5484 398.191 31.2421C398.191 32.69 396.997 33.6226 395.839 33.7144L398.66 36.6797H396.04L393.469 33.8203H392.566V36.6797H390.422ZM395.017 30.4313H392.566V32.1258H395.049C395.479 32.1258 396.033 31.8133 396.033 31.2785C396.033 30.8629 395.605 30.4313 395.017 30.4313ZM407.08 36.6797V34.9322H411.372C412.007 34.9322 412.282 34.6102 412.282 34.2571C412.282 33.9187 412.008 33.5766 411.372 33.5766H409.432C407.747 33.5766 406.808 32.6129 406.808 31.166C406.808 29.8754 407.668 28.6309 410.173 28.6309H414.348L413.446 30.4419H409.834C409.144 30.4419 408.931 30.7818 408.931 31.1064C408.931 31.4401 409.194 31.808 409.721 31.808H411.753C413.632 31.808 414.447 32.8083 414.447 34.1181C414.447 35.5263 413.539 36.6797 411.65 36.6797H407.08ZM414.637 36.6797V34.9322H418.928C419.563 34.9322 419.838 34.6102 419.838 34.2571C419.838 33.9187 419.564 33.5766 418.928 33.5766H416.989C415.303 33.5766 414.365 32.6129 414.365 31.166C414.365 29.8754 415.224 28.6309 417.729 28.6309H421.905L421.002 30.4419H417.391C416.7 30.4419 416.488 30.7818 416.488 31.1064C416.488 31.4401 416.75 31.808 417.278 31.808H419.309C421.188 31.808 422.004 32.8083 422.004 34.1181C422.004 35.5263 421.095 36.6797 419.207 36.6797H414.637Z" fill="white"/>
<defs>
<linearGradient id="paint0_linear_6025_1497" x1="252.691" y1="25.2513" x2="243.766" y2="19.5499" gradientUnits="userSpaceOnUse">
<stop stop-color="#F6A000"/>
<stop offset="0.623918" stop-color="#E47E02"/>
<stop offset="1" stop-color="#D36002"/>
</linearGradient>
</defs>
</svg>
